<?xml version="1.0" encoding="utf-8"?>
<!-- Generator: Adobe Illustrator 16.0.4, SVG Export Plug-In . SVG Version: 6.00 Build 0)  -->
<!DOCTYPE svg PUBLIC "-//W3C//DTD SVG 1.1 Tiny//EN" "http://www.w3.org/Graphics/SVG/1.1/DTD/svg11-tiny.dtd">
<svg version="1.1" baseProfile="tiny" id="レイヤー_1"
	 xmlns="http://www.w3.org/2000/svg" xmlns:xlink="http://www.w3.org/1999/xlink" x="0px" y="0px" width="128px" height="128px"
	 viewBox="0 0 128 128" xml:space="preserve">
<g>
	<path fill="#F62800" d="M61.439,44.799v10.239c0,2.118,1.722,3.841,3.839,3.841h35.841c2.117,0,3.84-1.723,3.84-3.841V44.799
		H61.439z"/>
	<path fill="#F62800" d="M65.278,28.159c-2.117,0-3.839,1.723-3.839,3.84V42.24h43.52V31.999c0-2.117-1.723-3.84-3.84-3.84H65.278z"
		/>
	<path fill="#F62800" d="M0,0v128h128V0H0z M23.039,11.519c0-0.708,0.573-1.28,1.28-1.28c0.707,0,1.28,0.572,1.28,1.28v38.4
		c0,0.707-0.573,1.28-1.28,1.28c-0.707,0-1.28-0.573-1.28-1.28V11.519z M38.399,116.48c0,0.707-0.573,1.279-1.28,1.279
		s-1.28-0.572-1.28-1.279v-38.4c0-0.707,0.573-1.279,1.28-1.279s1.28,0.572,1.28,1.279V116.48z M38.399,51.199
		c0,3.991-3.235,8.666-6.661,13.616c-3.018,4.36-6.139,8.87-6.139,11.985v39.68c0,0.707-0.573,1.279-1.28,1.279
		c-0.707,0-1.28-0.572-1.28-1.279V76.8c0-3.914,3.203-8.543,6.593-13.442c3.052-4.409,6.207-8.968,6.207-12.159v-39.68
		c0-0.708,0.573-1.28,1.28-1.28s1.28,0.572,1.28,1.28V51.199z M69.119,108.797c0,0.708-0.573,1.28-1.28,1.28
		c-0.706,0-1.279-0.572-1.279-1.28v-30.72c0-0.707,0.573-1.279,1.279-1.279c0.707,0,1.28,0.572,1.28,1.279V108.797z M99.839,108.797
		c0,0.708-0.573,1.28-1.28,1.28c-0.706,0-1.279-0.572-1.279-1.28v-30.72c0-0.707,0.573-1.279,1.279-1.279
		c0.707,0,1.28,0.572,1.28,1.279V108.797z M108.8,12.799H84.479v12.8h16.641c3.528,0,6.399,2.871,6.399,6.399v23.04
		c0,3.529-2.871,6.4-6.399,6.4H84.479v57.6c0,0.708-0.573,1.28-1.279,1.28c-0.707,0-1.28-0.572-1.28-1.28v-57.6H65.278
		c-3.529,0-6.4-2.871-6.4-6.4v-23.04c0-3.528,2.871-6.399,6.4-6.399h16.641v-12.8H55.04c-2.117,0-3.84,1.722-3.84,3.84v102.4
		c0,0.708-0.573,1.28-1.279,1.28c-0.707,0-1.28-0.572-1.28-1.28v-102.4c0-3.529,2.871-6.399,6.399-6.399h53.76
		c0.707,0,1.28,0.572,1.28,1.28S109.507,12.799,108.8,12.799z"/>
</g>
</svg>
